# xmcd
# 
# Track frame offsets:
#     150
#     27100
#     58287
#     71190
#     89280
#     99180
#     120705
#     143605
# 
# Disc length: 2276
# 
# Revision: 15
# Processed by: cddbd v1.5.2PL0 Copyright (c) Steve Scherf et al.
# Submitted via: BonkEnc v1.0.8
# 
DISCID=6908e208
DTITLE=Weather Report - Heavy Weather
DYEAR=1977
DGENRE=Jazz-Rock
TTITLE0=Birdland
TTITLE1=A Remark You Made
TTITLE2=Teen Town
TTITLE3=Harlequin
TTITLE4=Rumba Mama
TTITLE5=Palladium
TTITLE6=The Juggler
TTITLE7=Havona
EXTD=YEAR: 1977
EXTT0=
EXTT1=
EXTT2=
EXTT3=
EXTT4=
EXTT5=
EXTT6=
EXTT7=
PLAYORDER=
